<?xml version="1.0" encoding="utf-8"?>
<!-- Generator: Adobe Illustrator 24.2.3, SVG Export Plug-In . SVG Version: 6.00 Build 0)  -->
<svg version="1.1" id="Layer_1" xmlns="http://www.w3.org/2000/svg" xmlns:xlink="http://www.w3.org/1999/xlink" x="0px" y="0px"
	 viewBox="0 0 378.6 104.1" style="enable-background:new 0 0 378.6 104.1;" xml:space="preserve">
<style type="text/css">
	.st0{fill:#FFFFFF;}
	.st1{fill:#BE0016;}
</style>
<g>
	<g id="XMLID_4_">
		<g id="XMLID_69_">
			<path id="XMLID_84_" class="st0" d="M65.3,0.6v2.6c3,0.1,5.4,0.6,7,1.5s3.5,2.8,5.6,5.7l2.5,3.1v70.3c0,5.5-1.1,9.4-3.3,11.8
				c-2.2,2.3-6.2,3.4-11.9,3.6v2.8h35.5v-3h-1.9c-3.4,0-6.6-1-9.2-3c-2.7-2-4-6-4.1-11.8V19.5l68.5,84.6h2.4V19.9
				c0-4.8,0.4-8.2,1.2-10.1c0.8-2,1.9-3.4,3.4-4.3c1.4-0.9,4.3-1.6,8.5-2.1V0.6H137v2.6c5.5-0.1,9.3,1.3,11.7,4.2
				c1.7,2.1,2.5,6.3,2.5,12.4v42.8L102,0.6C102.1,0.6,65.3,0.6,65.3,0.6z"/>
			<path id="XMLID_72_" class="st0" d="M190,59.4v-2.6c0-7.7,1.5-13.7,4.5-18.1c1.7-2.5,3.8-3.8,6.6-3.8c1.8,0,3.2,0.4,4.3,1.3
				c1.9,1.5,3.2,3.8,4.1,6.8c0.9,2.9,1.3,8.4,1.3,16.4h-21C190,59.5,190,59.4,190,59.4z M220.4,38.6c-5.1-5.9-11.4-8.8-18.5-8.8
				c-8.5,0-15.9,3.4-22.2,10.3s-9.4,16.2-9.4,27.9c0,9.5,2.1,17.6,6.4,23.9c5.3,8,13.2,12,23.6,12c5.9,0,11.4-1.6,15.9-4.8
				c4.5-3.1,8.8-8.6,12.6-16.2l-2.5-1.7c-2.8,4.3-5.4,7.2-8,8.9c-2.4,1.6-5.2,2.4-8.3,2.4c-4.8,0-9.1-2-12.6-6.2
				c-4.5-5.4-7.1-12.6-7.5-21.8h38.8C228.5,53.2,225.7,44.4,220.4,38.6z"/>
			<path id="XMLID_71_" class="st0" d="M301.4,103.2l19.8-55.5c2.1-6.3,3.8-10.1,5.1-11.5c1.3-1.3,3.1-2.1,5.4-2.4V31h-20.3v2.6
				c2.6,0.2,4.4,0.7,5.3,1.6c0.9,0.9,1.4,2.3,1.4,4.4c0,1.3-0.6,3.8-1.9,7.4l-8.7,25.2l-9.3-27.3c-1.4-3.8-2-6.3-2-7.4
				c0-1.1,0.4-2,1.1-2.7c0.7-0.6,2.4-1,5.1-1.2V31H266v2.6c2.4,0.4,4.2,1.1,5.4,2.2c1.2,1,2.5,3.6,4.1,7.3l0.8,2.3l-9.9,26.7
				l-10.7-27.3c-1.7-4.3-2.5-6.9-2.5-7.7c0-0.9,0.4-1.7,1.4-2.4s2.7-1.1,5.2-1.1V31h-34.5v2.6c2.5,0.7,4.3,1.8,5.5,3.4
				c1.9,2.3,4.1,7.4,6.9,15.2l18.6,50.7h3.7L278,52l18.5,50.9L301.4,103.2L301.4,103.2z"/>
			<path id="XMLID_70_" class="st0" d="M371.4,28.6c-1.2,1.6-2,2.6-2.7,2.9c-0.5,0.3-1.2,0.5-2.2,0.5c-0.8,0-1.9-0.4-3.3-1.1
				c-3.6-1.8-7.3-2.8-11.2-2.8c-7.1,0-12.6,2.2-16.3,6.7c-3.7,4.5-5.6,9.4-5.6,14.9c0,5.1,1.6,9.7,4.9,13.8c2.3,2.8,7.3,7,15,12.4
				c5.2,3.7,8.6,6.3,10,8.1c1.5,1.7,2.3,4,2.3,6.4c0,2.1-0.7,4.1-2.3,5.5c-1.5,1.5-3.5,2.2-5.9,2.2c-3.5,0-7.3-1.6-11.3-5.2
				c-3.9-3.4-7.1-8.5-9.3-15.3h-2.7l1.3,25.4h3.1c1.1-2.3,2.4-3.4,4.1-3.4c0.5,0,1.5,0.3,3,0.8c5.6,2,10,3.1,13.4,3.1
				c4.3,0,8.2-1,11.8-3c3.6-2,6.3-4.9,8.2-8.7c1.9-3.8,2.9-7.6,2.9-11.7c0-4.4-1.1-8.2-3.4-11.9c-2.3-3.4-7.1-7.7-14.5-12.9
				c-7.3-5-11.9-8.6-13.5-10.7c-1-1.2-1.5-2.5-1.5-4c0-1.8,0.7-3.4,2.1-4.8c1.4-1.4,3.1-2,5.3-2c3.2,0,6.5,1.3,9.7,4.1
				c3.2,2.7,6.4,7.8,9.4,15.2h2.5l-1.3-24.4h-2.5L371.4,28.6L371.4,28.6z"/>
		</g>
		<path id="XMLID_1_" class="st1" d="M55.3,0.7c-1.6,2.1-2.7,3.6-3.6,4c-0.7,0.4-1.6,0.7-2.9,0.7c-1.1,0-2.6-0.5-4.4-1.5
			C39.5,1.4,34.6,0,29.4,0C19.9,0,12.7,3,7.7,8.8S0.2,21.4,0.2,28.6c0,6.7,2.2,12.8,6.6,18.3c3,3.9,9.7,9.2,20,16.3
			c7,4.8,11.6,8.3,13.5,10.8c2.1,2.3,3,5.2,3,8.4c0,2.8-1,5.3-3,7.2c-2.1,2-4.7,3-7.9,3c-4.7,0-9.7-2.1-15-6.8
			c-5.2-4.5-9.5-11.3-12.6-20.3H1.1L2.9,99h3.7c1.5-3.1,3.3-4.6,5.5-4.6c0.7,0,2,0.4,4.1,1.1c7.5,2.7,13.6,4.2,18,4.2
			c5.7,0,11.1-1.3,15.8-4.1c4.8-2.7,8.5-6.5,11.1-11.5s4-10.1,4-15.4c0-5.8-1.5-11-4.6-15.7C57.4,48.4,51,42.8,41,36
			c-9.8-6.6-15.9-11.4-18.1-14.1c-1.4-1.6-2-3.3-2-5.3c0-2.4,1-4.6,2.9-6.4c1.9-1.9,4.2-2.7,7.1-2.7c4.4,0,8.7,1.7,13.2,5.4
			s8.4,10.5,12.6,20.2h3.7L58.6,0.6L55.3,0.7L55.3,0.7L55.3,0.7z"/>
	</g>
</g>
</svg>
